<svg xmlns="http://www.w3.org/2000/svg" xmlns:xlink="http://www.w3.org/1999/xlink" width="210.856" height="74.117" viewBox="0 0 210.856 74.117">
  <defs>
    <clipPath id="clip-path">
      <rect id="Rectangle_35" data-name="Rectangle 35" width="210.856" height="74.117" fill="#fbf8f2"/>
    </clipPath>
  </defs>
  <g id="Group_39" data-name="Group 39" clip-path="url(#clip-path)">
    <path id="Path_21" data-name="Path 21" d="M0,131.117a2.735,2.735,0,0,0,2.895-2.9V95.8A2.735,2.735,0,0,0,0,92.9V91.743H17.024c26.635.463,26.462,40.532-.463,40.532H0ZM9.843,95.8v32.426a2.736,2.736,0,0,0,2.9,2.9h3.88c17.487,0,17.487-38.216,0-38.216h-3.88a2.736,2.736,0,0,0-2.9,2.9" transform="translate(0 -58.159)" fill="#fbf8f2"/>
    <path id="Path_22" data-name="Path 22" d="M142.251,103.845h-1.158v-.463c0-6.311-4.169-10.481-10.481-10.481H120.074a2.736,2.736,0,0,0-2.9,2.9v14.592a1.49,1.49,0,0,0,1.563,1.563h6.832a6.139,6.139,0,0,0,6.486-6.485h1.158v14.128h-1.158a6.139,6.139,0,0,0-6.486-6.485h-6.832a1.489,1.489,0,0,0-1.563,1.563v13.55a2.736,2.736,0,0,0,2.9,2.9h10.538c6.311,0,10.481-4.169,10.481-10.481v-.463h1.158v12.1H107.336v-1.158a2.735,2.735,0,0,0,2.895-2.9V95.8a2.736,2.736,0,0,0-2.895-2.9V91.743h34.915Z" transform="translate(-68.044 -58.159)" fill="#fbf8f2"/>
    <path id="Path_23" data-name="Path 23" d="M213.707,91.743h12.739V92.9a2.736,2.736,0,0,0-2.9,2.9v32.426a2.736,2.736,0,0,0,2.9,2.9h10.538c6.311,0,10.48-4.169,10.48-10.481v-.463h1.158v12.1H213.707v-1.158a2.735,2.735,0,0,0,2.895-2.9V95.8a2.721,2.721,0,0,0-1.969-2.779,4.472,4.472,0,0,0-.926-.116Z" transform="translate(-135.475 -58.159)" fill="#fbf8f2"/>
    <path id="Path_24" data-name="Path 24" d="M320.079,132.275v-1.159a2.735,2.735,0,0,0,2.895-2.9V95.8a2.735,2.735,0,0,0-2.895-2.9V91.743H337.8c22.988.289,22.815,23.566-.405,23.624h-5.906a1.49,1.49,0,0,0-1.563,1.563v11.291a2.735,2.735,0,0,0,2.9,2.9v1.159Zm9.843-36.48v16.85a1.49,1.49,0,0,0,1.563,1.563h5.906c13.781,0,13.781-21.309,0-21.309h-4.574a2.735,2.735,0,0,0-2.9,2.9" transform="translate(-202.908 -58.159)" fill="#fbf8f2"/>
    <path id="Path_25" data-name="Path 25" d="M421.858,91.743H434.6V92.9a2.736,2.736,0,0,0-2.9,2.9v14.592a1.489,1.489,0,0,0,1.563,1.563h16.849a1.489,1.489,0,0,0,1.563-1.563V95.8a2.735,2.735,0,0,0-2.895-2.9V91.743h12.738V92.9a2.736,2.736,0,0,0-2.9,2.9v32.426a2.736,2.736,0,0,0,2.9,2.9v1.158H448.784v-1.158a2.735,2.735,0,0,0,2.895-2.9V114.672a1.489,1.489,0,0,0-1.563-1.563H433.265a1.489,1.489,0,0,0-1.563,1.563v13.549a2.736,2.736,0,0,0,2.9,2.9v1.158H421.858v-1.158a2.736,2.736,0,0,0,2.9-2.9V95.8a2.735,2.735,0,0,0-2.9-2.9Z" transform="translate(-267.428 -58.159)" fill="#fbf8f2"/>
    <path id="Path_26" data-name="Path 26" d="M544.1,128.221V95.8a2.736,2.736,0,0,0-2.9-2.9V91.743H553.94V92.9a2.735,2.735,0,0,0-2.9,2.9v32.426a2.735,2.735,0,0,0,2.9,2.9v1.159H541.2v-1.159a2.736,2.736,0,0,0,2.9-2.9" transform="translate(-343.084 -58.159)" fill="#fbf8f2"/>
    <path id="Path_27" data-name="Path 27" d="M236.6,0h12.142V3.731h-.357V3.588A3.046,3.046,0,0,0,245.15.356h-.518a.844.844,0,0,0-.893.894v10a.844.844,0,0,0,.893.892V12.5H240.7v-.357a.844.844,0,0,0,.893-.892v-10A.844.844,0,0,0,240.7.356h-.518a3.046,3.046,0,0,0-3.232,3.232v.143H236.6Z" transform="translate(-149.986 0.001)" fill="#fbf8f2"/>
    <path id="Path_28" data-name="Path 28" d="M272.685,0h3.928V.356a.844.844,0,0,0-.893.894v4.5a.46.46,0,0,0,.482.482h5.2a.46.46,0,0,0,.482-.482v-4.5a.844.844,0,0,0-.893-.894V0h3.928V.356a.844.844,0,0,0-.892.894v10a.844.844,0,0,0,.892.892V12.5h-3.928v-.357a.844.844,0,0,0,.893-.892V7.069a.46.46,0,0,0-.482-.482h-5.2a.46.46,0,0,0-.482.482v4.179a.844.844,0,0,0,.893.892V12.5h-3.928v-.357a.844.844,0,0,0,.892-.892v-10a.844.844,0,0,0-.892-.894Z" transform="translate(-172.863 0.001)" fill="#fbf8f2"/>
    <path id="Path_29" data-name="Path 29" d="M320.758,3.731H320.4V3.588A3.046,3.046,0,0,0,317.169.356h-3.25a.844.844,0,0,0-.893.894v4.5a.46.46,0,0,0,.482.482h2.107a1.893,1.893,0,0,0,2-2h.357V8.588h-.357a1.894,1.894,0,0,0-2-2h-2.107a.46.46,0,0,0-.482.482v4.179a.844.844,0,0,0,.893.892h3.25A3.046,3.046,0,0,0,320.4,8.908V8.766h.357V12.5H309.991V12.14a.843.843,0,0,0,.892-.892v-10a.844.844,0,0,0-.892-.894V0h10.767Z" transform="translate(-196.513 0.001)" fill="#fbf8f2"/>
    <rect id="Rectangle_33" data-name="Rectangle 33" width="73.876" height="0.804" transform="translate(0 5.847)" fill="#fbf8f2"/>
    <rect id="Rectangle_34" data-name="Rectangle 34" width="73.876" height="0.804" transform="translate(136.98 5.847)" fill="#fbf8f2"/>
  </g>
</svg>
