<svg xmlns="http://www.w3.org/2000/svg" xmlns:xlink="http://www.w3.org/1999/xlink" id="Layer_1" data-name="Layer 1" width="7.76in" height="7.76in" viewBox="0 0 558.89 558.89">
  <defs>
    <style>
      .cls-1 {
        fill: none;
      }

      .cls-2 {
        clip-path: url(#clip-path);
      }

      .cls-3 {
        fill: #1d1d1d;
      }
    </style>
    <clipPath id="clip-path" transform="translate(0.2 0.2)">
      <rect class="cls-1" width="560" height="560"/>
    </clipPath>
  </defs>
  <g class="cls-2">
    <g id="Repeat_Grid_1" data-name="Repeat Grid 1">
      <g id="Group_1592" data-name="Group 1592">
        <g class="cls-2">
          <g id="Group_1" data-name="Group 1">
            <path id="Path_2" data-name="Path 2" class="cls-3" d="M476.84,81.64c-109.13-109.13-286.07-109.13-395.2,0s-109.13,286.07,0,395.2,286.07,109.13,395.2,0,109.12-286.07,0-395.2m-197.61,472C127.71,553.6,4.88,430.77,4.88,279.24S127.71,4.88,279.24,4.88,553.6,127.71,553.6,279.24,430.76,553.6,279.24,553.6" transform="translate(0.2 0.2)"/>
            <path id="Path_3" data-name="Path 3" class="cls-3" d="M542,279.24c5.68,0,11.29-4.11,11.2-12.88,0-.11,0-.19,0-.3-.18-3.57-.51-7.14-.76-10.72s-.69-7.13-1.15-10.68c0-.11,0-.19,0-.3-1.11-8.63-7.76-11.81-13.28-10.75a11.33,11.33,0,0,0-8.82,7.84q-.93-6.18-2.16-12.26a10.94,10.94,0,0,0,2.76,2.71,11.56,11.56,0,0,0,8.22,1.71,10.87,10.87,0,0,0,7.18-4.45A12.35,12.35,0,0,0,546.84,219c0-.11,0-.18-.06-.29-.86-3.48-1.5-7-2.55-10.45l-2.94-10.34-.08-.29c-2.94-8.27-9.62-10.24-15-8.28,5.35-1.92,9.2-7.72,6.11-15.94l-.11-.28c-1.41-3.29-2.93-6.54-4.4-9.81s-3.15-6.44-4.76-9.64l-.13-.27a15.44,15.44,0,0,0-3.53-4.54,11.75,11.75,0,0,0-4.29-2.2,10.91,10.91,0,0,0-8.35,1.21,11.53,11.53,0,0,0-5.2,6.6,11,11,0,0,0-.37,4q-3.06-5.61-6.4-11a11.32,11.32,0,0,0,12,.43c4.91-2.73,7.95-9.43,3.27-16.77l-.16-.25-2.9-4.53c-1-1.49-2.06-2.93-3.09-4.4-2.12-2.89-4.07-5.9-6.32-8.69l-.19-.23c-2.72-3.37-5.87-5-8.84-5.3a10.92,10.92,0,0,0-8,2.65,11.53,11.53,0,0,0-3.76,11.36q-3.93-4.92-8.09-9.62a11.43,11.43,0,0,0,11.85-1.74c4.38-3.55,6.07-10.56.32-17.08l-.21-.22-7.42-7.78-7.77-7.42-.22-.2c-6.53-5.75-13.53-4.06-17.09.31a11.43,11.43,0,0,0-1.73,11.86q-4.71-4.17-9.63-8.09a11.3,11.3,0,0,0,4,.2,11.55,11.55,0,0,0,7.39-4,10.87,10.87,0,0,0,2.65-8c-.29-3-1.93-6.12-5.29-8.85l-.24-.18c-2.79-2.26-5.8-4.21-8.69-6.33-1.47-1-2.91-2.1-4.4-3.09l-4.52-2.9-.26-.16c-7.34-4.68-14-1.64-16.77,3.27a11.34,11.34,0,0,0,.44,12q-5.43-3.33-11-6.4a11,11,0,0,0,4-.36,11.54,11.54,0,0,0,6.59-5.2,10.89,10.89,0,0,0,1.21-8.36,11.75,11.75,0,0,0-2.2-4.29,15.41,15.41,0,0,0-4.54-3.52l-.26-.14c-3.2-1.61-6.35-3.35-9.64-4.76s-6.52-3-9.82-4.4l-.28-.11c-8.21-3.09-14,.77-15.94,6.11,2-5.33,0-12-8.27-14.94l-.29-.09-10.35-2.94c-3.43-1.05-7-1.68-10.44-2.54l-.29-.07a12.37,12.37,0,0,0-10.19,1.66,10.86,10.86,0,0,0-4.44,7.18,11.53,11.53,0,0,0,1.7,8.23,11.1,11.1,0,0,0,2.72,2.75Q323.22,30.24,317,29.3a11.33,11.33,0,0,0,7.84-8.82C325.93,15,322.75,8.31,314.12,7.2l-.3,0c-3.56-.46-7.11-.94-10.69-1.15s-7.14-.58-10.71-.76h-.3c-8.77-.09-12.9,5.52-12.88,11.2,0-5.68-4.11-11.29-12.88-11.2h-.3c-3.57.18-7.14.51-10.72.76s-7.13.69-10.68,1.15l-.3,0c-8.63,1.11-11.81,7.76-10.75,13.28a11.33,11.33,0,0,0,7.84,8.82q-6.18.93-12.26,2.16a10.94,10.94,0,0,0,2.71-2.76,11.59,11.59,0,0,0,1.71-8.23,10.87,10.87,0,0,0-4.45-7.17A12.39,12.39,0,0,0,219,11.63l-.29.07c-3.48.86-7,1.5-10.45,2.55L197.9,17.19l-.29.08c-8.27,2.94-10.24,9.62-8.28,15-1.92-5.35-7.72-9.2-15.94-6.11l-.28.11c-3.29,1.41-6.54,2.93-9.81,4.4s-6.44,3.15-9.64,4.75l-.27.14A15.41,15.41,0,0,0,148.86,39a11.6,11.6,0,0,0-2.2,4.29,10.88,10.88,0,0,0,1.2,8.36,11.53,11.53,0,0,0,6.6,5.2,11,11,0,0,0,4,.37q-5.61,3.06-11,6.4a11.34,11.34,0,0,0,.43-12c-2.73-4.91-9.43-7.94-16.77-3.26l-.25.16-4.52,2.9c-1.49,1-2.93,2.06-4.4,3.09-2.9,2.11-5.9,4.07-8.69,6.32l-.24.19c-3.36,2.72-5,5.87-5.29,8.84a10.84,10.84,0,0,0,2.65,8,11.51,11.51,0,0,0,11.35,3.76q-4.9,3.93-9.62,8.09A11.43,11.43,0,0,0,110.34,78c-3.55-4.38-10.56-6.07-17.08-.32l-.22.21-7.78,7.42L77.85,93l-.21.22c-5.75,6.53-4.06,13.53.32,17.08a11.39,11.39,0,0,0,11.85,1.74q-4.17,4.71-8.09,9.62A11.53,11.53,0,0,0,78,110.34a10.92,10.92,0,0,0-8-2.65c-3,.3-6.12,1.93-8.84,5.3l-.19.23c-2.25,2.79-4.2,5.8-6.32,8.69-1,1.47-2.1,2.91-3.09,4.4l-2.9,4.53-.16.25c-4.68,7.34-1.65,14,3.26,16.77a11.34,11.34,0,0,0,12-.43q-3.33,5.43-6.4,11a11,11,0,0,0-.37-4,11.53,11.53,0,0,0-5.2-6.6,10.86,10.86,0,0,0-8.35-1.2,11.45,11.45,0,0,0-4.29,2.2,15.27,15.27,0,0,0-3.53,4.53l-.13.27c-1.61,3.2-3.35,6.34-4.76,9.64s-3,6.52-4.4,9.81l-.11.28c-3.09,8.22.76,14,6.11,15.94-5.33-2-12,0-14.95,8.28l-.08.29-2.94,10.34c-1.05,3.43-1.69,7-2.54,10.45l-.07.29a12.35,12.35,0,0,0,1.66,10.18,10.87,10.87,0,0,0,7.18,4.45,11.56,11.56,0,0,0,8.22-1.71,10.94,10.94,0,0,0,2.76-2.71q-1.23,6.08-2.16,12.26a11.33,11.33,0,0,0-8.82-7.84C15,232.55,8.31,235.73,7.2,244.36c0,.11,0,.19,0,.3-.46,3.56-.94,7.1-1.15,10.68s-.58,7.15-.76,10.72c0,.12,0,.19,0,.3-.09,8.77,5.52,12.9,11.2,12.88-5.68,0-11.29,4.11-11.2,12.88,0,.11,0,.18,0,.3.18,3.57.51,7.14.76,10.71s.69,7.13,1.15,10.69c0,.11,0,.18,0,.3,1.11,8.63,7.76,11.81,13.28,10.75A11.33,11.33,0,0,0,29.3,317q.93,6.18,2.16,12.26a10.94,10.94,0,0,0-2.76-2.71,11.59,11.59,0,0,0-8.23-1.71,10.87,10.87,0,0,0-7.17,4.45,12.36,12.36,0,0,0-1.67,10.18c0,.11,0,.18.07.29.86,3.48,1.5,7,2.54,10.45l2.94,10.34.09.29c2.93,8.27,9.62,10.24,15,8.28-5.35,1.92-9.2,7.72-6.11,15.94l.11.28c1.41,3.29,2.93,6.54,4.4,9.81s3.15,6.44,4.75,9.64l.14.27A15.41,15.41,0,0,0,39,409.62a11.6,11.6,0,0,0,4.29,2.2,10.88,10.88,0,0,0,8.36-1.2,11.53,11.53,0,0,0,5.2-6.6,10.79,10.79,0,0,0,.36-4q3.07,5.61,6.4,11a11.32,11.32,0,0,0-12-.43c-4.91,2.73-7.94,9.43-3.26,16.77l.16.25,2.9,4.53c1,1.49,2.06,2.93,3.09,4.4,2.11,2.89,4.07,5.9,6.32,8.69l.19.23c2.72,3.37,5.87,5,8.84,5.3a10.93,10.93,0,0,0,8-2.65,11.53,11.53,0,0,0,3.76-11.36q3.93,4.92,8.09,9.62A11.41,11.41,0,0,0,78,448.13c-4.38,3.56-6.07,10.56-.32,17.09l.2.22,7.42,7.77L93,480.63l.22.21c6.53,5.75,13.53,4.06,17.08-.32a11.39,11.39,0,0,0,1.74-11.85q4.71,4.15,9.62,8.09a11,11,0,0,0-4-.21,11.53,11.53,0,0,0-7.38,4,10.88,10.88,0,0,0-2.65,8c.29,3,1.92,6.12,5.29,8.84l.24.19c2.78,2.25,5.8,4.2,8.69,6.32,1.46,1,2.9,2.1,4.4,3.09l4.52,2.9.25.16c7.34,4.68,14,1.64,16.78-3.27a11.34,11.34,0,0,0-.44-12q5.43,3.33,11,6.4a11,11,0,0,0-4,.37,11.46,11.46,0,0,0-6.59,5.2,10.82,10.82,0,0,0-1.21,8.35,11.45,11.45,0,0,0,2.2,4.29,15.24,15.24,0,0,0,4.53,3.52l.27.14c3.2,1.61,6.34,3.35,9.64,4.76s6.52,3,9.81,4.4l.28.11c8.22,3.09,14-.76,15.94-6.11-2,5.33,0,12,8.28,15l.29.08,10.34,2.94c3.43,1,7,1.69,10.45,2.54l.29.07a12.35,12.35,0,0,0,10.18-1.66,10.89,10.89,0,0,0,4.45-7.18,11.56,11.56,0,0,0-1.71-8.22,10.77,10.77,0,0,0-2.71-2.76q6.08,1.23,12.26,2.16a11.32,11.32,0,0,0-7.84,8.82c-1.06,5.52,2.12,12.17,10.75,13.28l.3,0c3.56.45,7.11.94,10.69,1.14s7.14.59,10.71.77h.3c8.77.09,12.9-5.52,12.88-11.2,0,5.68,4.11,11.29,12.88,11.2h.3c3.57-.18,7.14-.51,10.72-.77s7.13-.69,10.68-1.14l.3,0c8.63-1.12,11.81-7.76,10.75-13.28a11.32,11.32,0,0,0-7.84-8.82q6.18-.93,12.26-2.16a10.77,10.77,0,0,0-2.71,2.76,11.56,11.56,0,0,0-1.71,8.22,10.89,10.89,0,0,0,4.45,7.18,12.35,12.35,0,0,0,10.18,1.66l.29-.07c3.48-.85,7-1.5,10.45-2.54l10.34-2.94.29-.08c8.27-2.94,10.24-9.62,8.28-15,1.92,5.35,7.72,9.2,15.94,6.11l.28-.11c3.29-1.41,6.54-2.93,9.81-4.4s6.44-3.15,9.64-4.76l.27-.14a15.24,15.24,0,0,0,4.53-3.52,11.45,11.45,0,0,0,2.2-4.29,10.89,10.89,0,0,0-1.2-8.36,11.57,11.57,0,0,0-6.6-5.2,11.23,11.23,0,0,0-4-.36q5.61-3.06,11-6.4a11.32,11.32,0,0,0-.43,12c2.73,4.91,9.43,7.95,16.77,3.27l.25-.16,4.53-2.9c1.49-1,2.93-2.06,4.4-3.09,2.89-2.12,5.9-4.07,8.69-6.32l.23-.19c3.37-2.72,5-5.87,5.3-8.85a10.91,10.91,0,0,0-2.65-8,11.57,11.57,0,0,0-7.39-4,11,11,0,0,0-4,.21q4.91-3.93,9.62-8.09a11.43,11.43,0,0,0,1.74,11.85c3.55,4.38,10.56,6.07,17.09.32l.21-.21,7.78-7.42,7.42-7.77.21-.22c5.75-6.53,4.06-13.53-.32-17.09a11.45,11.45,0,0,0-11.86-1.74q4.17-4.71,8.09-9.62a11.28,11.28,0,0,0-.2,4,11.55,11.55,0,0,0,4,7.39,10.91,10.91,0,0,0,8,2.65c3-.3,6.12-1.93,8.85-5.3l.18-.23c2.26-2.79,4.21-5.8,6.33-8.69,1-1.47,2.09-2.91,3.09-4.4l2.9-4.53.16-.25c4.68-7.34,1.64-14-3.27-16.77a11.32,11.32,0,0,0-12,.43q3.33-5.43,6.4-11a11,11,0,0,0,.36,4,11.53,11.53,0,0,0,5.2,6.6,10.88,10.88,0,0,0,8.36,1.2,11.45,11.45,0,0,0,4.29-2.2,15.24,15.24,0,0,0,3.52-4.53l.14-.27c1.61-3.2,3.35-6.34,4.75-9.64s3-6.52,4.4-9.81c0-.11.07-.18.12-.28,3.09-8.22-.77-14-6.12-15.94,5.33,2,12,0,15-8.28l.09-.29,2.94-10.34c1-3.43,1.68-7,2.54-10.45,0-.11,0-.18.07-.29a12.35,12.35,0,0,0-1.66-10.18,10.92,10.92,0,0,0-7.18-4.45,11.59,11.59,0,0,0-8.23,1.71,10.9,10.9,0,0,0-2.75,2.71q1.23-6.07,2.16-12.26a11.32,11.32,0,0,0,8.82,7.84c5.51,1.06,12.16-2.12,13.28-10.75,0-.11,0-.19,0-.3.46-3.56.95-7.11,1.15-10.69s.59-7.14.77-10.71v-.3c.1-8.77-5.51-12.9-11.2-12.88m10.4-15.62c.07.84.14,1.67.14,2.51.27,10.27-17,11.17-20.75,3.89-.08-2.22-.19-4.44-.33-6.64a1.56,1.56,0,0,1,.92-.37l18.25-1.15a1.68,1.68,0,0,1,1.77,1.6.43.43,0,0,1,0,.16m-20.51,9.52a11.45,11.45,0,0,0,10.1,6.11,11.49,11.49,0,0,0-10.1,6.11c.05-2,.07-4.07.08-6.11s0-4.08-.08-6.11m19.88-17.73a1.68,1.68,0,0,1-1.3,2l-.18,0-18.24,1.45a1.6,1.6,0,0,1-.93-.21c-.07-.95-.16-1.9-.25-2.85a1.6,1.6,0,0,1,.92-.4l18.21-1.7a1.64,1.64,0,0,1,1.77,1.49.89.89,0,0,1,0,.23M538.88,238c5.36-.87,11.09,1.08,11.78,6.74l.32,2.49a1.63,1.63,0,0,1-1.17,2l-.22,0-18.18,2a1.64,1.64,0,0,1-1-.21c-.24-2.2-.52-4.38-.82-6.56,1.16-3.49,5.09-5.81,9.28-6.49M528,251.83l-32.62,3.43q-1.11-10.14-3.12-20l32.06-6.82q2.38,11.5,3.68,23.37M279.24,491.62c-117.1,0-212.38-95.28-212.38-212.38S162.13,66.86,279.24,66.86s212.37,95.27,212.37,212.38S396.34,491.62,279.24,491.62m66-5.19,10.14,31.19q-11.21,3.58-22.85,6.12l-6.82-32.09q9.94-2.17,19.53-5.22m-44.51,9.2,3.42,32.6q-11.67,1.15-23.62,1.22V496.66q10.22,0,20.2-1m-22.74,1v32.79q-12-.06-23.63-1.22l3.43-32.6q10,1,20.2,1m-45.18-5L226,523.74q-11.64-2.54-22.85-6.12l10.13-31.19q9.58,3.06,19.54,5.22M39.68,198.55a11.46,11.46,0,0,0-7.44-9.21,11.5,11.5,0,0,0,11.64-2.29q-2.24,5.69-4.2,11.5m10.47-19.92,30,13.34q-4.07,9.22-7.26,18.87L41.65,200.71q3.74-11.29,8.5-22.08m-9.29,24.49L72,213.25q-3.06,9.58-5.22,19.54L34.74,226q2.52-11.64,6.12-22.85M72.05,345.23,40.86,355.36q-3.59-11.21-6.12-22.85l32.09-6.82q2.17,9.94,5.22,19.54m-28.17,26.2a11.48,11.48,0,0,0-11.64-2.29,11.47,11.47,0,0,0,7.44-9.21q2,5.81,4.2,11.5m-2.24-13.66,31.22-10.14q3.19,9.64,7.26,18.87l-30,13.35q-4.76-10.78-8.5-22.08M213.25,72.05,203.12,40.86q11.2-3.59,22.85-6.12l6.82,32.09q-9.94,2.17-19.54,5.22m44.52-9.2-3.42-32.6Q266,29.1,278,29V61.81q-10.22.06-20.2,1m22.74-1V29q11.94.06,23.62,1.22l-3.42,32.6q-10-1-20.21-1m45.18,5,6.83-32.09q11.63,2.52,22.84,6.12L345.22,72.05q-9.57-3.06-19.53-5.22M516.83,200.71l-31.22,10.14q-3.19-9.65-7.25-18.87l30-13.35q4.76,10.78,8.5,22.07m-2.23-13.65a11.5,11.5,0,0,0,11.64,2.29,11.46,11.46,0,0,0-7.44,9.21q-2-5.82-4.2-11.5m-29,160.58,31.22,10.14q-3.74,11.28-8.5,22.08l-30-13.35q4.06-9.21,7.26-18.87m33.18,12.3a11.47,11.47,0,0,0,7.44,9.21,11.49,11.49,0,0,0-11.64,2.3q2.24-5.7,4.2-11.5m-1.18-4.58-31.19-10.14q3.06-9.57,5.22-19.53l32.09,6.82q-2.54,11.63-6.12,22.85M486.43,213.25l31.19-10.13q3.58,11.2,6.12,22.85l-32.09,6.82q-2.17-9.94-5.22-19.54m59.15,3.17.56,2.45c1.35,5.54-3.54,9.35-8.82,10.35-4.25.8-8.68-.09-10.93-3q-.69-3.19-1.46-6.36a1.67,1.67,0,0,1,.86-.54l17.78-4.3a1.63,1.63,0,0,1,2,1.23,1.55,1.55,0,0,1,0,.21m-2-8a1.64,1.64,0,0,1-.85,2.14l-.22.07-17.7,4.61a1.61,1.61,0,0,1-1.06-.09c-.24-.9-.49-1.79-.73-2.69a1.54,1.54,0,0,1,.84-.57L541.52,207a1.67,1.67,0,0,1,2.05,1.2l0,.17m-2.94-10.36.69,2.42a1.69,1.69,0,0,1-.9,2.21l-.16,0-17.55,5.14a1.55,1.55,0,0,1-1-.05q-.91-3.1-1.92-6.2c.9-8.22,17.56-13.39,20.86-3.57M528.4,170a1.69,1.69,0,0,1,2.21.9l.06.15c.33.77.71,1.52,1,2.31,3.81,9.64-12.32,16.4-18.29,10.64q-1.21-3-2.5-5.92a1.58,1.58,0,0,1,.78-.73Zm-1.13-6.47a1.68,1.68,0,0,1-.56,2.31l-.15.08-16.63,7.63a1.59,1.59,0,0,1-1.05.1c-.38-.83-.77-1.66-1.16-2.48a1.64,1.64,0,0,1,.78-.78L525,162.57a1.63,1.63,0,0,1,2.17.8c0,.06,0,.14.08.21M509.1,151.67c4.7-2.65,10.86-2.84,13.4,2.26l1.15,2.23a1.64,1.64,0,0,1-.42,2.29,1.18,1.18,0,0,1-.19.11l-16.38,8.13a1.62,1.62,0,0,1-1.08.13c-.95-1.89-1.91-3.77-2.9-5.64-.26-3.76,2.62-7.37,6.42-9.5m-1.8,24.64-30,13.36q-4.19-9.24-9.2-18l28.43-16.43q5.87,10.25,10.78,21.06m-12.06-23.25-28.41,16.4q-5.13-8.73-11-16.93l26.54-19.29q6.9,9.58,12.91,19.82m10.4-24.63a1.63,1.63,0,0,1,2.26.48,1.28,1.28,0,0,1,.11.2l1.36,2.11c3.09,4.79,0,10-4.71,12.74-3.72,2.21-8.33,2.95-11.46.86q-1.69-2.69-3.44-5.32a1.57,1.57,0,0,1,.67-.91Zm-2.27-6.14a1.64,1.64,0,0,1-.1,2.32,1.07,1.07,0,0,1-.16.14l-15.05,10.4a1.58,1.58,0,0,1-1.08.28c-.51-.74-1-1.5-1.55-2.24a1.6,1.6,0,0,1,.62-.87L501,121.71a1.66,1.66,0,0,1,2.32.42c0,.05.07.1.1.16m-6.33-8.7,1.54,2a1.69,1.69,0,0,1-.11,2.4l-.11.1-14.73,10.85a1.62,1.62,0,0,1-1.09.31c-1.25-1.7-2.53-3.38-3.82-5-2.07-8.09,11.9-18.77,18.32-10.6m-16.2,17.6-26.52,19.27q-6-8.15-12.74-15.69L466,112.84q7.86,8.8,14.9,18.35m-2.4-39.5,1.73,1.82c3.9,4.16,1.56,9.93-2.49,13.42-3.36,2.89-7.73,4.33-11.16,2.74-1.4-1.55-2.83-3.08-4.27-4.6a1.55,1.55,0,0,1,.48-1L476,91.47a1.67,1.67,0,0,1,2.36.08s.08.09.12.15m-5.7-6a1.69,1.69,0,0,1,.23,2.39l-.09.11-13,12.84a1.57,1.57,0,0,1-1.05.47c-.62-.63-1.25-1.25-1.88-1.88a1.52,1.52,0,0,1,.47-1l12.84-13a1.71,1.71,0,0,1,2.41,0l.09.11m-21.2-4.94C455,76.74,460.81,74.4,465,78.3L466.78,80a1.66,1.66,0,0,1,.35,2.33.79.79,0,0,1-.12.15L454.38,95.74a1.55,1.55,0,0,1-1,.48c-1.52-1.44-3.05-2.87-4.6-4.27-1.59-3.43-.15-7.8,2.74-11.16m-4,13.43q8.74,8,16.72,16.72l-24.35,21.92q-6.81-7.47-14.29-14.29Zm-1.9-1.69L423.7,116.89q-7.54-6.72-15.69-12.74l19.27-26.51q9.53,7,18.36,14.9M442.9,59.89l2,1.55c8.17,6.41-2.51,20.38-10.6,18.31q-2.49-1.94-5-3.82a1.52,1.52,0,0,1,.31-1.09L440.4,60.12a1.7,1.7,0,0,1,2.38-.33.63.63,0,0,1,.12.1m-9.17-4.53A1.64,1.64,0,0,1,436,55l.17.13a1.67,1.67,0,0,1,.67,2.26l-.09.16-10.61,14.9a1.59,1.59,0,0,1-.88.62c-.74-.53-1.49-1-2.23-1.56a1.61,1.61,0,0,1,.28-1.08Zm-19.21-1.55c2.78-4.67,8-7.8,12.74-4.71l2.11,1.36a1.62,1.62,0,0,1,.78,2.17,1.28,1.28,0,0,1-.11.2L419.89,68a1.59,1.59,0,0,1-.92.67c-1.75-1.17-3.53-2.32-5.32-3.44-2.08-3.13-1.35-7.74.87-11.46m10.71,22.33L406,102.68q-8.2-5.9-16.94-11l16.4-28.41q10.23,6,19.82,12.91M403.22,62,386.81,90.37q-8.74-5-18-9.2l13.36-30Q393,56.06,403.22,61.94m-.91-27.12L404.55,36c5.1,2.55,4.9,8.7,2.26,13.41-2.14,3.8-5.75,6.68-9.5,6.42-1.87-1-3.75-1.95-5.64-2.9a1.53,1.53,0,0,1,.13-1.07l8.12-16.39a1.64,1.64,0,0,1,2.21-.72l.19.11m-7.41-3.62a1.63,1.63,0,0,1,1.08,2,1,1,0,0,1-.08.21L388.06,50a1.64,1.64,0,0,1-.78.78l-2.49-1.16a1.65,1.65,0,0,1,.1-1.05l7.63-16.63a1.68,1.68,0,0,1,2.24-.79l.15.08m-9.82-4.4c.78.29,1.53.67,2.29,1a1.69,1.69,0,0,1,1.11,2.12.88.88,0,0,1-.05.15l-7.35,16.76a1.63,1.63,0,0,1-.73.78q-3-1.29-5.92-2.51c-5.76-6,1-22.1,10.64-18.29m-5.23,23.35-13.35,30q-9.22-4.07-18.87-7.26l10.14-31.21q11.28,3.74,22.07,8.5m-10.7-17.91a11.48,11.48,0,0,0,2.29,11.64q-5.69-2.24-11.5-4.2a11.46,11.46,0,0,0,9.21-7.44M358,17.13l2.41.69c9.82,3.3,4.65,20-3.57,20.85-2.06-.66-4.12-1.3-6.2-1.91a1.56,1.56,0,0,1,0-1l5.14-17.56a1.68,1.68,0,0,1,2.1-1.11l.16.06m-7.94-2.25a1.68,1.68,0,0,1,1.41,1.92.94.94,0,0,1,0,.16L346.59,34.6a1.54,1.54,0,0,1-.57.84l-2.69-.73a1.55,1.55,0,0,1-.08-1.06l4.6-17.7a1.62,1.62,0,0,1,2-1.15l.22.08m-20.8,6.28c1-5.29,4.81-10.17,10.35-8.83l2.45.57a1.65,1.65,0,0,1,1.48,1.8,1.55,1.55,0,0,1,0,.21l-4.31,17.77a1.61,1.61,0,0,1-.53.86q-3.17-.76-6.36-1.45c-2.95-2.25-3.84-6.68-3-10.93m-20-12.28a1.65,1.65,0,0,1,1.82-1.43l.22,0,2.49.31c5.66.7,7.61,6.42,6.74,11.79-.68,4.18-3,8.12-6.49,9.27q-3.27-.45-6.56-.82a1.59,1.59,0,0,1-.21-1ZM330,34.2l-6.81,32.05c-6.56-1.35-13.23-2.37-20-3.12l3.43-32.61Q318.52,31.83,330,34.2M301.08,8.15a1.67,1.67,0,0,1,1.82-1.51l.18,0a1.65,1.65,0,0,1,1.72,1.55v.22l-1.7,18.22a1.74,1.74,0,0,1-.4.92l-2.85-.26a1.67,1.67,0,0,1-.22-.93ZM292.35,5.9c.83,0,1.67.08,2.5.14a1.69,1.69,0,0,1,1.77,1.61v.16l-1.15,18.26a1.7,1.7,0,0,1-.37.91c-2.21-.14-4.42-.24-6.64-.32-7.29-3.8-6.39-21,3.89-20.76M279.24,16.45a11.45,11.45,0,0,0,6.11,10.1q-3-.07-6.11-.08c-2.05,0-4.08,0-6.11.08a11.49,11.49,0,0,0,6.11-10.1M263.62,6c.84-.06,1.67-.14,2.51-.14,10.27-.27,11.17,17,3.89,20.76-2.22.08-4.44.18-6.64.32a1.56,1.56,0,0,1-.37-.91L261.86,7.81A1.69,1.69,0,0,1,263.46,6h.16m-8.22.62a1.68,1.68,0,0,1,2,1.31l0,.18,1.45,18.23a1.59,1.59,0,0,1-.22.93l-2.84.26a1.6,1.6,0,0,1-.4-.92L253.68,8.43a1.64,1.64,0,0,1,1.49-1.77h.23M238,19.6c-.87-5.37,1.08-11.09,6.73-11.79l2.5-.31a1.63,1.63,0,0,1,2,1.17,1.55,1.55,0,0,1,0,.21l2,18.19a1.59,1.59,0,0,1-.21,1c-2.2.25-4.38.52-6.56.82-3.49-1.15-5.81-5.09-6.5-9.27m13.86,10.92,3.43,32.61q-10.14,1.11-20,3.12l-6.82-32.06q11.51-2.38,23.37-3.68m-35.4-17.62,2.45-.56c5.54-1.35,9.35,3.54,10.35,8.83.8,4.24-.09,8.68-3,10.93q-3.19.69-6.36,1.45a1.57,1.57,0,0,1-.54-.86L215,14.91a1.66,1.66,0,0,1,1.24-2l.21,0m-8,2a1.64,1.64,0,0,1,2.14.85,2,2,0,0,1,.07.23l4.61,17.7a1.61,1.61,0,0,1-.09,1.06l-2.69.73a1.63,1.63,0,0,1-.57-.84L207,17a1.67,1.67,0,0,1,1.2-2.05l.17,0m-10.36,3,2.42-.69a1.68,1.68,0,0,1,2.2.89.52.52,0,0,1,.06.16l5.14,17.56a1.56,1.56,0,0,1-.05,1q-3.1.91-6.2,1.91c-8.22-.9-13.39-17.56-3.57-20.85m-8.71,14.42a11.47,11.47,0,0,0,9.21,7.44q-5.82,2-11.5,4.2a11.51,11.51,0,0,0,2.29-11.64m11.37,9.41,10.14,31.21q-9.65,3.19-18.87,7.26l-13.35-30q10.78-4.76,22.07-8.5M171.09,27.81c.77-.34,1.52-.71,2.31-1C183,23,189.8,39.13,184,45.1q-3,1.21-5.92,2.5a1.56,1.56,0,0,1-.73-.77L170,30.08a1.69,1.69,0,0,1,.9-2.21l.15-.06m-7.52,3.4a1.68,1.68,0,0,1,2.31.56,1.09,1.09,0,0,1,.08.15l7.63,16.63a1.59,1.59,0,0,1,.1,1.05l-2.48,1.16a1.66,1.66,0,0,1-.79-.78l-7.85-16.52a1.64,1.64,0,0,1,.79-2.17l.22-.08M151.67,49.38C149,44.67,148.82,38.51,153.93,36l2.23-1.15a1.65,1.65,0,0,1,2.29.42l.11.19,8.13,16.39a1.65,1.65,0,0,1,.13,1.07c-1.89,1-3.78,1.92-5.64,2.91-3.76.25-7.37-2.62-9.5-6.42m24.64,1.79,13.35,30q-9.24,4.2-18,9.2L155.25,62q10.25-5.87,21.06-10.78M153.06,63.23l16.4,28.41q-8.73,5.13-16.93,11L133.25,76.14q9.58-6.92,19.81-12.91M129.11,50.46l2.11-1.36c4.79-3.09,10,0,12.74,4.71,2.21,3.72,2.95,8.33.86,11.46-1.79,1.13-3.56,2.27-5.32,3.44a1.57,1.57,0,0,1-.91-.67L128.44,52.83a1.62,1.62,0,0,1,.47-2.26l.2-.11m-6.82,4.64a1.66,1.66,0,0,1,2.33.09l.13.17,10.4,15a1.61,1.61,0,0,1,.28,1.08c-.74.52-1.5,1-2.23,1.56a1.59,1.59,0,0,1-.88-.62l-10.61-14.9a1.67,1.67,0,0,1,.42-2.32l.16-.1m-8.7,6.33,2-1.54a1.69,1.69,0,0,1,2.4.1l.1.12,10.85,14.73a1.62,1.62,0,0,1,.31,1.09c-1.7,1.25-3.38,2.53-5,3.82-8.09,2.07-18.77-11.9-10.6-18.32m17.6,16.2,19.27,26.52q-8.15,6-15.69,12.74L112.84,92.53q8.8-7.87,18.35-14.9M110.94,94.22l21.92,24.35q-7.47,6.81-14.29,14.29L94.22,110.94q8-8.75,16.72-16.72M91.69,80l1.82-1.73c4.16-3.9,9.93-1.56,13.41,2.49,2.9,3.36,4.34,7.73,2.75,11.16-1.55,1.4-3.09,2.83-4.61,4.27a1.58,1.58,0,0,1-1-.48L91.46,82.51a1.67,1.67,0,0,1,.09-2.36l.14-.12m-6,5.69a1.71,1.71,0,0,1,2.4-.22l.1.09,12.85,13a1.56,1.56,0,0,1,.46,1l-1.87,1.88a1.59,1.59,0,0,1-1-.47l-13-12.84a1.7,1.7,0,0,1,0-2.4l.1-.1m-4.93,21.2c-4.05-3.48-6.39-9.26-2.49-13.41L80,91.69a1.66,1.66,0,0,1,2.33-.35l.14.12,13.23,12.63a1.59,1.59,0,0,1,.49,1q-2.16,2.28-4.28,4.61c-3.42,1.59-7.8.14-11.15-2.75m11.74,5.92,24.36,21.93q-6.72,7.54-12.74,15.69L77.63,131.2q7-9.54,14.9-18.36m-32.65,2.73,1.55-2c6.42-8.17,20.39,2.51,18.32,10.6-1.3,1.67-2.57,3.34-3.82,5a1.52,1.52,0,0,1-1.09-.31L60.11,118.07a1.7,1.7,0,0,1-.32-2.38l.1-.12m-4.79,6.72a1.67,1.67,0,0,1,2.26-.68l.16.1,14.9,10.6a1.67,1.67,0,0,1,.62.88c-.53.74-1,1.49-1.56,2.24a1.61,1.61,0,0,1-1.08-.28l-15-10.4a1.64,1.64,0,0,1-.39-2.29,1.09,1.09,0,0,1,.13-.17M53.81,144c-4.67-2.78-7.8-8-4.71-12.74l1.36-2.11a1.62,1.62,0,0,1,2.17-.78.78.78,0,0,1,.2.11L68,138.59a1.57,1.57,0,0,1,.67.91c-1.17,1.76-2.31,3.53-3.44,5.32-3.13,2.09-7.74,1.35-11.46-.86m22.33-10.71,26.54,19.28q-5.91,8.19-11,16.93l-28.41-16.4q6-10.23,12.91-19.81M62,155.25l28.42,16.41q-5,8.76-9.21,18l-30-13.35q4.91-10.81,10.78-21.06m-27.12.91L36,153.93c2.55-5.1,8.7-4.9,13.41-2.26,3.8,2.13,6.68,5.74,6.42,9.5q-1.49,2.79-2.9,5.64a1.62,1.62,0,0,1-1.08-.13l-16.38-8.12a1.64,1.64,0,0,1-.72-2.21,1.18,1.18,0,0,1,.11-.19m-3.62,7.41a1.65,1.65,0,0,1,2-1.09l.21.08L50,170.42a1.64,1.64,0,0,1,.78.78c-.39.83-.78,1.65-1.16,2.48a1.53,1.53,0,0,1-1.05-.1L31.92,166a1.68,1.68,0,0,1-.8-2.24,1.09,1.09,0,0,1,.08-.15m-4.4,9.82c.29-.78.67-1.54,1-2.3A1.69,1.69,0,0,1,29.92,170l.15.05,16.76,7.36a1.63,1.63,0,0,1,.78.73c-.86,2-1.7,3.94-2.51,5.92-6,5.76-22.1-1-18.29-10.64m-9.68,27.07.69-2.42c3.3-9.81,20-4.64,20.85,3.58q-1,3.08-1.91,6.2a1.55,1.55,0,0,1-1,0l-17.56-5.14a1.69,1.69,0,0,1-1.11-2.1l.06-.16m-2.25,7.94A1.68,1.68,0,0,1,16.8,207l.16,0,17.64,4.85a1.54,1.54,0,0,1,.84.57c-.24.89-.49,1.79-.73,2.69a1.67,1.67,0,0,1-1.06.08L16,210.62a1.62,1.62,0,0,1-1.15-2,1.43,1.43,0,0,1,.08-.22m6.28,20.8c-5.29-1-10.17-4.8-8.83-10.35l.57-2.45a1.65,1.65,0,0,1,1.8-1.47l.21,0,17.78,4.31a1.58,1.58,0,0,1,.85.54q-.76,3.17-1.45,6.35c-2.25,3-6.68,3.84-10.93,3m13-.76,32.05,6.81c-1.35,6.56-2.37,13.23-3.11,20l-32.62-3.42Q31.83,240,34.2,228.45m-4,25.89,32.6,3.43q-1,10-1,20.2H29q.06-12,1.22-23.62m-21.82-.67,18.21,1.7a1.71,1.71,0,0,1,.92.4c-.08,1-.17,1.9-.25,2.85a1.6,1.6,0,0,1-.93.22L8.15,257.4a1.67,1.67,0,0,1-1.51-1.82,1.1,1.1,0,0,1,0-.18,1.65,1.65,0,0,1,1.55-1.72.81.81,0,0,1,.22,0M5.9,266.13c0-.84.08-1.67.14-2.51a1.69,1.69,0,0,1,1.61-1.76h.16L26.07,263a1.56,1.56,0,0,1,.91.37c-.13,2.2-.24,4.42-.32,6.64-3.8,7.28-21,6.38-20.76-3.89m20.65,19.22a11.45,11.45,0,0,0-10.1-6.11,11.49,11.49,0,0,0,10.1-6.11q-.07,3-.08,6.11t.08,6.11M6,294.85c-.06-.83-.13-1.67-.14-2.51-.26-10.27,17-11.17,20.76-3.88.08,2.22.18,4.43.32,6.63a1.56,1.56,0,0,1-.91.37L7.81,296.62A1.69,1.69,0,0,1,6,295v-.16m.62,8.23a1.69,1.69,0,0,1,1.31-2l.18,0,18.23-1.45a1.59,1.59,0,0,1,.93.22c.08.95.17,1.9.26,2.84a1.6,1.6,0,0,1-.92.4l-18.22,1.7a1.64,1.64,0,0,1-1.77-1.49v-.22m12.93,17.43c-5.36.87-11.08-1.08-11.78-6.74l-.32-2.49a1.64,1.64,0,0,1,1.17-2l.22,0,18.18-2a1.71,1.71,0,0,1,1,.21c.24,2.2.52,4.39.82,6.56-1.15,3.49-5.09,5.82-9.28,6.5M28.05,251a1.64,1.64,0,0,1-1,.22l-18.18-2a1.63,1.63,0,0,1-1.43-1.82,1.43,1.43,0,0,1,0-.22l.32-2.49c.7-5.66,6.42-7.61,11.78-6.74,4.19.68,8.13,3,9.28,6.49q-.45,3.27-.82,6.56m1,29.49H61.81q.06,10.22,1,20.2l-32.6,3.43Q29.1,292.46,29,280.5m1.49,26.15,32.61-3.42c.74,6.75,1.77,13.43,3.12,20L34.2,330q-2.39-11.5-3.68-23.37M12.9,342.06l-.57-2.45c-1.35-5.54,3.54-9.35,8.83-10.35,4.24-.8,8.68.09,10.93,3q.69,3.19,1.45,6.36a1.69,1.69,0,0,1-.86.54l-17.77,4.3a1.64,1.64,0,0,1-2-1.23.76.76,0,0,1,0-.21m2,8a1.62,1.62,0,0,1,.85-2.14l.22-.08,17.7-4.6a1.62,1.62,0,0,1,1.06.09c.23.9.48,1.79.73,2.69a1.69,1.69,0,0,1-.84.57L17,351.44a1.68,1.68,0,0,1-2.05-1.21.94.94,0,0,1,0-.16m3,10.36L17.13,358a1.68,1.68,0,0,1,.9-2.2l.16-.06,17.55-5.14a1.62,1.62,0,0,1,1,.05q.91,3.1,1.92,6.2c-.9,8.22-17.56,13.39-20.86,3.58m12.26,28a1.69,1.69,0,0,1-2.21-.9.76.76,0,0,1-.06-.16c-.34-.76-.71-1.51-1-2.3-3.81-9.64,12.32-16.4,18.29-10.64q1.21,3,2.5,5.92a1.52,1.52,0,0,1-.77.73Zm1.13,6.46a1.68,1.68,0,0,1,.56-2.31l.15-.08,16.63-7.62a1.49,1.49,0,0,1,1-.1l1.16,2.48a1.62,1.62,0,0,1-.77.78l-16.52,7.86a1.63,1.63,0,0,1-2.17-.8,1.8,1.8,0,0,1-.08-.21m18.17,11.91c-4.7,2.64-10.86,2.84-13.41-2.26l-1.15-2.24a1.65,1.65,0,0,1,.42-2.28,2,2,0,0,1,.19-.12l16.39-8.12a1.55,1.55,0,0,1,1.08-.13q1.41,2.83,2.9,5.64c.25,3.76-2.62,7.37-6.42,9.5m1.79-24.64,30-13.36q4.2,9.24,9.21,18L62,403.23Q56.08,393,51.17,382.18m12.06,23.24L91.64,389q5.13,8.73,11,16.93L76.14,425.23q-6.9-9.59-12.91-19.81M52.83,430a1.62,1.62,0,0,1-2.26-.47,1.28,1.28,0,0,1-.11-.2l-1.36-2.11c-3.09-4.79,0-10,4.71-12.74,3.72-2.21,8.33-2.95,11.46-.87,1.12,1.79,2.27,3.57,3.44,5.32a1.59,1.59,0,0,1-.67.92Zm2.27,6.15a1.66,1.66,0,0,1,.09-2.33l.17-.13,15-10.4a1.58,1.58,0,0,1,1.08-.28c.51.74,1,1.5,1.55,2.24a1.6,1.6,0,0,1-.62.87l-14.9,10.61a1.67,1.67,0,0,1-2.32-.42l-.1-.16m6.33,8.7-1.54-2a1.69,1.69,0,0,1,.11-2.4.52.52,0,0,1,.11-.1l14.73-10.85a1.62,1.62,0,0,1,1.09-.31c1.25,1.7,2.53,3.37,3.82,5,2.07,8.09-11.9,18.77-18.32,10.6m16.2-17.6L104.15,408q6,8.14,12.74,15.69L92.53,445.64q-7.87-8.82-14.9-18.36m2.4,39.5L78.3,465c-3.9-4.15-1.56-9.93,2.49-13.41,3.36-2.89,7.73-4.34,11.16-2.75,1.4,1.56,2.83,3.09,4.27,4.61a1.54,1.54,0,0,1-.49,1L82.51,467a1.67,1.67,0,0,1-2.36-.08l-.12-.15m5.69,6a1.7,1.7,0,0,1-.22-2.39l.09-.11,13-12.85a1.6,1.6,0,0,1,1-.46l1.88,1.88a1.59,1.59,0,0,1-.47,1l-12.84,13a1.69,1.69,0,0,1-2.4,0,.52.52,0,0,1-.1-.11m21.2,4.94c-3.48,4.05-9.26,6.39-13.41,2.49l-1.82-1.73a1.66,1.66,0,0,1-.35-2.33l.12-.15,12.63-13.23a1.58,1.58,0,0,1,1-.48c1.52,1.44,3.05,2.87,4.61,4.27,1.59,3.43.14,7.8-2.75,11.16m4-13.43q-8.75-8-16.71-16.72l24.34-21.92q6.83,7.47,14.3,14.29Zm1.9,1.69,21.94-24.36q7.54,6.72,15.69,12.74L131.2,480.84q-9.52-7-18.36-14.9m2.74,32.65-2-1.55c-8.17-6.42,2.51-20.39,10.6-18.32q2.49,1.95,5,3.82a1.62,1.62,0,0,1-.31,1.09l-10.85,14.73a1.69,1.69,0,0,1-2.38.33l-.12-.1m9.18,4.52a1.65,1.65,0,0,1-2.29.4l-.17-.14a1.68,1.68,0,0,1-.68-2.26l.1-.16,10.6-14.9a1.6,1.6,0,0,1,.88-.61l2.24,1.55a1.61,1.61,0,0,1-.28,1.08ZM144,504.66c-2.78,4.67-7.95,7.81-12.74,4.71L129.11,508a1.63,1.63,0,0,1-.78-2.17,2,2,0,0,1,.11-.2l10.15-15.21a1.62,1.62,0,0,1,.91-.67q2.64,1.75,5.32,3.45c2.09,3.12,1.35,7.74-.86,11.46m-10.71-22.33,19.28-26.54q8.19,5.9,16.93,11l-16.4,28.41q-10.22-6-19.81-12.91m22,14.19,16.41-28.42q8.76,5,18,9.2l-13.35,30q-10.81-4.9-21.06-10.78m.91,27.13-2.23-1.15c-5.1-2.55-4.9-8.7-2.26-13.41,2.14-3.8,5.75-6.67,9.5-6.42q2.81,1.49,5.64,2.9a1.62,1.62,0,0,1-.13,1.08L158.56,523a1.65,1.65,0,0,1-2.21.73,1.22,1.22,0,0,1-.19-.12m7.41,3.62a1.64,1.64,0,0,1-1.09-2,1.8,1.8,0,0,1,.08-.21l7.86-16.52a1.64,1.64,0,0,1,.78-.78c.83.4,1.65.78,2.48,1.16a1.51,1.51,0,0,1-.1,1.05L166,526.56a1.68,1.68,0,0,1-2.24.79l-.15-.08m9.82,4.4c-.79-.29-1.54-.66-2.3-1a1.68,1.68,0,0,1-1.11-2.11.75.75,0,0,1,.05-.16l7.35-16.75a1.58,1.58,0,0,1,.74-.77q2.94,1.29,5.92,2.5c5.75,6-1,22.1-10.65,18.29m5.24-23.34,13.34-30q9.22,4.06,18.87,7.26l-10.13,31.21q-11.29-3.74-22.08-8.5m10.71,17.91a11.51,11.51,0,0,0-2.29-11.64q5.69,2.24,11.5,4.2a11.46,11.46,0,0,0-9.21,7.44m11.13,15.11-2.42-.69c-9.81-3.3-4.65-20,3.58-20.86q3.08,1,6.2,1.92a1.62,1.62,0,0,1,0,1l-5.14,17.55a1.68,1.68,0,0,1-2.1,1.12l-.16-.06m7.94,2.25a1.68,1.68,0,0,1-1.41-1.92l0-.17,4.85-17.63a1.54,1.54,0,0,1,.57-.84c.89.24,1.79.49,2.69.72a1.71,1.71,0,0,1,.08,1.07l-4.6,17.7a1.62,1.62,0,0,1-2,1.15l-.22-.08m20.8-6.28c-1,5.28-4.8,10.17-10.35,8.82l-2.45-.56a1.65,1.65,0,0,1-1.47-1.8,1.52,1.52,0,0,1,0-.21l4.31-17.78a1.58,1.58,0,0,1,.54-.85q3.17.76,6.35,1.45c3,2.25,3.84,6.68,3,10.93m20,12.27a1.63,1.63,0,0,1-1.82,1.43.85.85,0,0,1-.22,0l-2.49-.31c-5.66-.7-7.61-6.43-6.74-11.79.68-4.18,3-8.12,6.49-9.27q3.27.45,6.56.82a1.6,1.6,0,0,1,.22,1Zm-20.78-25.31,6.81-32.06q9.84,2,20,3.12L251.82,528q-11.87-1.31-23.37-3.68m28.95,26.05a1.68,1.68,0,0,1-1.83,1.51l-.17,0a1.65,1.65,0,0,1-1.72-1.55.81.81,0,0,1,0-.22l1.7-18.22a1.6,1.6,0,0,1,.4-.92l2.85.26a1.58,1.58,0,0,1,.21.93Zm8.73,2.25c-.84,0-1.67-.08-2.51-.14a1.69,1.69,0,0,1-1.76-1.61.43.43,0,0,1,0-.16L263,532.41a1.56,1.56,0,0,1,.37-.91c2.2.14,4.42.24,6.64.32,7.28,3.8,6.38,21-3.89,20.76M279.24,542a11.49,11.49,0,0,0-6.11-10.1c2,.05,4.06.07,6.11.08s4.08,0,6.11-.08a11.45,11.45,0,0,0-6.11,10.1m15.61,10.41c-.83.06-1.67.14-2.5.14-10.28.27-11.18-17-3.89-20.75q3.33-.12,6.64-.33a1.63,1.63,0,0,1,.37.92l1.15,18.25a1.68,1.68,0,0,1-1.61,1.77h-.16m8.23-.62a1.68,1.68,0,0,1-2-1.31,1.1,1.1,0,0,1,0-.18l-1.45-18.23a1.59,1.59,0,0,1,.22-.93l2.84-.26a1.6,1.6,0,0,1,.4.92l1.7,18.22a1.62,1.62,0,0,1-1.49,1.76h-.23m17.44-12.94c.87,5.36-1.08,11.09-6.74,11.79l-2.49.31a1.63,1.63,0,0,1-2-1.17,1.55,1.55,0,0,1,0-.21l-2-18.18a1.62,1.62,0,0,1,.21-1c2.2-.25,4.38-.52,6.56-.82,3.49,1.15,5.81,5.09,6.49,9.27M306.66,528l-3.43-32.62c6.75-.74,13.43-1.77,20-3.12L330,524.29q-11.5,2.37-23.37,3.67m35.4,17.62-2.45.57c-5.54,1.34-9.36-3.54-10.35-8.83-.8-4.24.09-8.68,3-10.93,2.13-.46,4.24-.94,6.35-1.45a1.57,1.57,0,0,1,.54.86l4.31,17.77a1.66,1.66,0,0,1-1.24,2,.64.64,0,0,1-.2,0m8-2a1.63,1.63,0,0,1-2.13-.85,2.09,2.09,0,0,1-.08-.23l-4.6-17.7a1.61,1.61,0,0,1,.09-1.06L346,523a1.57,1.57,0,0,1,.57.84l4.85,17.64a1.68,1.68,0,0,1-1.21,2.05l-.16,0m10.35-3-2.42.69a1.68,1.68,0,0,1-2.2-.89l-.06-.16-5.13-17.56a1.52,1.52,0,0,1,0-1c2.08-.62,4.14-1.26,6.2-1.92,8.22.9,13.39,17.56,3.58,20.85m8.71-14.42a11.46,11.46,0,0,0-9.21-7.43q5.82-2,11.5-4.2a11.46,11.46,0,0,0-2.29,11.63m-11.37-9.41-10.14-31.21q9.64-3.21,18.87-7.26l13.35,30q-10.78,4.76-22.08,8.5m29.61,13.84c-.76.34-1.51.71-2.3,1-9.64,3.81-16.4-12.32-10.64-18.29q3-1.21,5.92-2.51a1.63,1.63,0,0,1,.73.78l7.35,16.75a1.69,1.69,0,0,1-.9,2.21l-.15.06m7.52-3.4a1.68,1.68,0,0,1-2.31-.56.8.8,0,0,1-.08-.16l-7.63-16.62a1.53,1.53,0,0,1-.1-1.05l2.48-1.16a1.64,1.64,0,0,1,.78.78L395.91,525a1.63,1.63,0,0,1-.8,2.17l-.21.08m11.91-18.17c2.65,4.7,2.84,10.86-2.26,13.4l-2.24,1.15a1.64,1.64,0,0,1-2.28-.42,1.22,1.22,0,0,1-.12-.19l-8.12-16.39a1.59,1.59,0,0,1-.13-1.07c1.89-.95,3.77-1.91,5.64-2.9,3.76-.26,7.36,2.62,9.5,6.42m-24.64-1.8-13.36-30q9.24-4.19,18-9.2l16.42,28.43Q393,502.4,382.17,507.31m23.25-12.06L389,466.84q8.73-5.13,16.93-11l19.28,26.54q-9.59,6.9-19.82,12.91m24,12.77-2.12,1.36c-4.78,3.09-10,0-12.74-4.71-2.21-3.72-2.94-8.33-.86-11.46q2.69-1.69,5.32-3.45a1.69,1.69,0,0,1,.92.67L430,505.65a1.64,1.64,0,0,1-.47,2.26l-.2.11m6.81-4.64a1.65,1.65,0,0,1-2.32-.09l-.13-.17-10.4-15.05a1.59,1.59,0,0,1-.28-1.08c.74-.52,1.5-1,2.23-1.55a1.59,1.59,0,0,1,.88.62L436.77,501a1.68,1.68,0,0,1-.42,2.32l-.16.09m8.7-6.33-2,1.55a1.69,1.69,0,0,1-2.4-.11l-.1-.12-10.85-14.72a1.52,1.52,0,0,1-.31-1.09c1.69-1.25,3.37-2.53,5-3.82,8.09-2.07,18.77,11.9,10.6,18.32m-17.6-16.2L408,454.33q8.14-6,15.69-12.74L445.64,466q-8.82,7.88-18.36,14.9m20.26-16.59-21.93-24.35q7.49-6.81,14.3-14.29l24.34,21.92q-8,8.74-16.71,16.72m19.24,14.19L465,480.18c-4.16,3.9-9.93,1.56-13.42-2.49-2.89-3.36-4.33-7.73-2.74-11.16,1.55-1.41,3.08-2.83,4.6-4.28a1.62,1.62,0,0,1,1,.49L467,476a1.66,1.66,0,0,1-.08,2.35.93.93,0,0,1-.15.13m6-5.7a1.69,1.69,0,0,1-2.39.23l-.11-.1-12.85-13a1.56,1.56,0,0,1-.46-1l1.88-1.88a1.52,1.52,0,0,1,1,.47l13,12.84a1.69,1.69,0,0,1,0,2.4.52.52,0,0,1-.11.1m4.94-21.2c4.05,3.48,6.38,9.26,2.49,13.41l-1.73,1.82a1.66,1.66,0,0,1-2.33.35L476,467l-13.23-12.63a1.58,1.58,0,0,1-.48-1c1.44-1.52,2.87-3.05,4.27-4.61,3.43-1.59,7.8-.14,11.16,2.75M466,445.64,441.59,423.7q6.72-7.54,12.74-15.69l26.51,19.27q-7,9.53-14.9,18.36m32.65-2.74-1.55,2c-6.42,8.17-20.39-2.51-18.31-10.6q1.93-2.49,3.82-5a1.54,1.54,0,0,1,1.09.31l14.72,10.84a1.7,1.7,0,0,1,.33,2.38.63.63,0,0,1-.1.12m4.78-6.72a1.66,1.66,0,0,1-2.26.68l-.16-.1-14.9-10.6a1.65,1.65,0,0,1-.61-.88c.52-.74,1-1.49,1.55-2.24a1.72,1.72,0,0,1,1.08.28l15,10.4a1.65,1.65,0,0,1,.4,2.3l-.14.16m1.3-21.67c4.66,2.78,7.8,7.95,4.7,12.74L508,429.37a1.65,1.65,0,0,1-2.18.78l-.2-.11-15.21-10.15a1.61,1.61,0,0,1-.67-.92c1.17-1.75,2.32-3.53,3.45-5.31,3.12-2.09,7.74-1.35,11.46.86m-22.33,10.71L455.8,406q5.9-8.2,11-16.94l28.41,16.4q-6,10.23-12.91,19.82m14.19-22-28.42-16.41q5-8.76,9.2-18l30,13.35q-4.9,10.81-10.78,21.06m27.13-.91-1.15,2.24c-2.54,5.1-8.7,4.9-13.41,2.25-3.8-2.13-6.67-5.74-6.42-9.5q1.49-2.79,2.9-5.64a1.67,1.67,0,0,1,1.08.13l16.39,8.13a1.64,1.64,0,0,1,.72,2.21l-.11.19m3.61-7.42a1.62,1.62,0,0,1-2,1.09l-.22-.08-16.52-7.85a1.6,1.6,0,0,1-.77-.79c.39-.82.78-1.65,1.16-2.48a1.59,1.59,0,0,1,1.05.1l16.62,7.63a1.69,1.69,0,0,1,.8,2.24l-.09.15m4.4-9.82c-.29.78-.66,1.53-1,2.3a1.68,1.68,0,0,1-2.11,1.1l-.15-.05-16.75-7.35a1.63,1.63,0,0,1-.78-.73c.86-2,1.69-3.94,2.5-5.93,6-5.75,22.1,1,18.29,10.65M541.35,358l-.69,2.41c-3.3,9.82-20,4.65-20.86-3.57.67-2.06,1.31-4.12,1.92-6.2a1.55,1.55,0,0,1,1-.05l17.55,5.14a1.67,1.67,0,0,1,1.11,2.1.75.75,0,0,1,0,.16m2.25-7.94a1.68,1.68,0,0,1-1.92,1.41l-.17,0-17.63-4.84A1.56,1.56,0,0,1,523,346c.25-.9.5-1.79.73-2.69a1.71,1.71,0,0,1,1.07-.08l17.7,4.6a1.62,1.62,0,0,1,1.14,2,1.42,1.42,0,0,1-.07.22m-6.29-20.8c5.29,1,10.18,4.8,8.83,10.35l-.56,2.44a1.65,1.65,0,0,1-1.8,1.48l-.21,0-17.78-4.31a1.57,1.57,0,0,1-.86-.54c.51-2.11,1-4.23,1.45-6.35,2.25-3,6.69-3.84,10.93-3m-13,.76-32.06-6.81q2-9.84,3.12-20L528,306.66q-1.31,11.86-3.68,23.37m4-25.9-32.6-3.42q1-10,1-20.2h32.78q-.06,11.94-1.22,23.62M496.66,278q-.06-10.22-1-20.2l32.6-3.43Q529.39,266,529.45,278Zm54,35.8c-.7,5.66-6.42,7.61-11.78,6.74-4.19-.68-8.13-3-9.28-6.49.3-2.18.58-4.37.82-6.56a1.64,1.64,0,0,1,1-.22l18.18,2a1.63,1.63,0,0,1,1.43,1.82,1.7,1.7,0,0,1,0,.22Zm-.62-9-18.21-1.7a1.57,1.57,0,0,1-.92-.4c.09-.95.17-1.9.25-2.84a1.6,1.6,0,0,1,.93-.22l18.24,1.45a1.67,1.67,0,0,1,1.51,1.82,1.1,1.1,0,0,1,0,.18,1.65,1.65,0,0,1-1.55,1.72h-.22m2.53-12.45c0,.84-.08,1.67-.14,2.51a1.69,1.69,0,0,1-1.62,1.76h-.15l-18.26-1.15a1.56,1.56,0,0,1-.91-.37c.13-2.2.24-4.42.32-6.64,3.8-7.28,21-6.39,20.76,3.89" transform="translate(0.2 0.2)"/>
          </g>
        </g>
      </g>
    </g>
  </g>
</svg>
