<svg xmlns="http://www.w3.org/2000/svg" width="31" height="30" viewBox="0 0 31 30">
	<path fill-rule="nonzero" d="M21.377199 0H9.709834C7.27873614-1e-8 4.94722384.96581603 3.22826873 2.68495249 1.50931361 4.40408895.54374353 6.73570311.544 9.16680097V20.833199C.544 25.8942788 4.6468203 30 9.709834 30h11.6663981c5.0620467 0 9.1668009-4.1057212 9.1668009-9.166801V9.165834C30.544 4.10282031 26.4392458 0 21.377199 0zm6.6662369 20.833199c-.003731 3.6806485-2.9865554 6.6634729-6.6672038 6.6672039H9.709834c-3.68086917-.0031989-6.66400496-2.9863347-6.66720386-6.6672039V9.165834C3.04636116 5.48518553 6.02918553 2.50236116 9.709834 2.49863014h11.6663981c3.6806484.00373102 6.6634728 2.98655539 6.6672038 6.66720386v11.667365zM15.5435165 7.49975826c-4.1413388.00160093-7.49815731 3.35841944-7.49975824 7.49975824.00160054 4.1414955 3.35826304 7.4985908 7.49975824 7.5007252 4.1420939-.0010675 7.4996577-3.3586313 7.5007252-7.5007252-.0010677-4.1419373-3.3587877-7.49922449-7.5007252-7.49975824zm0 12.50088634c-2.7613868-.000534-4.9995501-2.2394188-4.9991941-5.0008056.000356-2.7613869 2.2390965-4.9996945 5.0004833-4.9995166 2.7613869.000178 4.9998389 2.2387742 4.9998389 5.0001611-.004261 2.7601232-2.2410041 4.9964338-5.0011281 5.0001611zm7.8333602-11.16744557c.9206823 0 1.6670427-.74636044 1.6670427-1.6670427 0-.92068227-.7463604-1.66704271-1.6670427-1.66704271-.9206823 0-1.6670427.74636044-1.6670427 1.66704271 0 .92068226.7463604 1.6670427 1.6670427 1.6670427z"></path>
</svg>
