<svg xmlns="http://www.w3.org/2000/svg" width="9.96" height="9.96" viewBox="0 0 9.96 9.96">
  <path id="call_FILL1_wght400_GRAD0_opsz48" d="M129.338-830.04a7.463,7.463,0,0,1-3.355-.83,11.39,11.39,0,0,1-3-2.158,11.39,11.39,0,0,1-2.158-3,7.462,7.462,0,0,1-.83-3.355.6.6,0,0,1,.18-.443.6.6,0,0,1,.443-.18h1.937a.489.489,0,0,1,.339.131.612.612,0,0,1,.187.353l.374,1.743a.994.994,0,0,1-.007.353.533.533,0,0,1-.145.27l-1.383,1.4a11.484,11.484,0,0,0,1.736,2.241,9.594,9.594,0,0,0,2.179,1.619l1.314-1.356a.765.765,0,0,1,.318-.214.639.639,0,0,1,.36-.021l1.646.36a.589.589,0,0,1,.346.208.586.586,0,0,1,.138.387v1.868a.6.6,0,0,1-.18.443A.6.6,0,0,1,129.338-830.04Z" transform="translate(-120 840)"/>
</svg>
